<?xml version="1.0" encoding="UTF-8"?>
<svg version="1.1" xmlns="http://www.w3.org/2000/svg" width="2560" height="2560">
<path d="M0 0 C5.31346415 3.37614861 10.79146621 6.47175462 16.25 9.60546875 C17.37172607 10.2504834 18.49345215 10.89549805 19.64916992 11.56005859 C21.9668029 12.89232512 24.28472536 14.22407511 26.60302734 15.55517578 C32.09389237 18.71019505 37.57797345 21.87694838 43.0625 25.04296875 C45.22913141 26.29302987 47.39579814 27.54302975 49.5625 28.79296875 C88.5625 51.29296875 88.5625 51.29296875 91.81201172 53.16772461 C93.98026264 54.41861355 96.14855697 55.66942727 98.31689453 56.92016602 C103.70967915 60.0309521 109.10172093 63.14301113 114.4921875 66.2578125 C126.29879484 73.07799512 138.12277 79.86620135 149.96722412 86.62033081 C159.00721708 91.77713483 168.00775321 96.99840644 176.98925781 102.25634766 C184.61155778 106.71213219 192.26781311 111.10694021 199.9375 115.48046875 C212.26275196 122.50900382 224.55972067 129.58537309 236.84472656 136.68408203 C242.24920645 139.8062148 247.65597412 142.92438079 253.0625 146.04296875 C255.2291775 147.29294997 257.39584417 148.54294996 259.5625 149.79296875 C261.17125 150.72109375 261.17125 150.72109375 262.8125 151.66796875 C350.5625 202.29296875 350.5625 202.29296875 353.81201172 204.16772461 C355.98026264 205.41861355 358.14855697 206.66942727 360.31689453 207.92016602 C365.70967915 211.0309521 371.10172093 214.14301113 376.4921875 217.2578125 C388.29879484 224.07799512 400.12277 230.86620135 411.96722412 237.62033081 C421.00579428 242.7763232 430.00527138 247.99617548 438.98486328 253.25415039 C446.64852252 257.73486268 454.34944638 262.14812631 462.0625 266.54296875 C470.75651686 271.49675698 479.42747229 276.48675244 488.0625 281.54296875 C496.6576729 286.57486665 505.28562222 291.54685999 513.9375 296.48046875 C526.26275196 303.50900382 538.55972067 310.58537309 550.84472656 317.68408203 C556.24920645 320.8062148 561.65597412 323.92438079 567.0625 327.04296875 C569.2291775 328.29294997 571.39584417 329.54294996 573.5625 330.79296875 C574.635 331.41171875 575.7075 332.03046875 576.8125 332.66796875 C638.56250001 368.29296875 638.56250001 368.29296875 641.81201172 370.16772461 C643.98026264 371.41861355 646.14855697 372.66942727 648.31689453 373.92016602 C653.70967915 377.0309521 659.10172093 380.14301113 664.4921875 383.2578125 C676.29879484 390.07799512 688.12277 396.86620135 699.96722412 403.62033081 C709.00721708 408.77713483 718.00775321 413.99840644 726.98925781 419.25634766 C734.61155778 423.71213219 742.26781311 428.10694021 749.9375 432.48046875 C762.26275196 439.50900382 774.55972067 446.58537309 786.84472656 453.68408203 C792.24920645 456.8062148 797.65597412 459.92438079 803.0625 463.04296875 C805.2291775 464.29294997 807.39584417 465.54294996 809.5625 466.79296875 C810.635 467.41171875 811.7075 468.03046875 812.8125 468.66796875 C926.5625 534.29296875 926.5625 534.29296875 929.81201172 536.16772461 C931.98026264 537.41861355 934.14855697 538.66942727 936.31689453 539.92016602 C941.70967915 543.0309521 947.10172093 546.14301113 952.4921875 549.2578125 C964.29879484 556.07799512 976.12277 562.86620135 987.96722412 569.62033081 C997.00721708 574.77713483 1006.00775321 579.99840644 1014.98925781 585.25634766 C1022.61155778 589.71213219 1030.26781311 594.10694021 1037.9375 598.48046875 C1050.26275196 605.50900382 1062.55972067 612.58537309 1074.84472656 619.68408203 C1080.24920645 622.8062148 1085.65597412 625.92438079 1091.0625 629.04296875 C1093.2291775 630.29294997 1095.39584417 631.54294996 1097.5625 632.79296875 C1098.635 633.41171875 1099.7075 634.03046875 1100.8125 634.66796875 C1188.56249998 685.29296874 1188.56249998 685.29296874 1191.81201172 687.16772461 C1193.98026264 688.41861355 1196.14855697 689.66942727 1198.31689453 690.92016602 C1203.70967915 694.0309521 1209.10172093 697.14301113 1214.4921875 700.2578125 C1226.29879484 707.07799512 1238.12277 713.86620135 1249.96722412 720.62033081 C1259.00579428 725.7763232 1268.00527138 730.99617548 1276.98486328 736.25415039 C1284.64852252 740.73486268 1292.34944638 745.14812631 1300.0625 749.54296875 C1308.75651686 754.49675698 1317.42747229 759.48675244 1326.0625 764.54296875 C1334.6576729 769.57486665 1343.28562222 774.54685999 1351.9375 779.48046875 C1364.26275196 786.50900382 1376.55972067 793.58537309 1388.84472656 800.68408203 C1394.24920645 803.8062148 1399.65597412 806.92438079 1405.0625 810.04296875 C1407.2291775 811.29294997 1409.39584417 812.54294996 1411.5625 813.79296875 C1412.635 814.41171875 1413.7075 815.03046875 1414.8125 815.66796875 C1476.5625 851.29296875 1476.5625 851.29296875 1479.81201172 853.16772461 C1481.98026264 854.41861355 1484.14855697 855.66942727 1486.31689453 856.92016602 C1491.70967915 860.0309521 1497.10172093 863.14301113 1502.4921875 866.2578125 C1514.29879484 873.07799512 1526.12277 879.86620135 1537.96722412 886.62033081 C1547.00721708 891.77713483 1556.00775321 896.99840644 1564.98925781 902.25634766 C1572.61155778 906.71213219 1580.26781311 911.10694021 1587.9375 915.48046875 C1599.17190415 921.88694254 1610.38475874 928.32953586 1621.58203125 934.80078125 C1626.05475065 937.38562472 1630.53169055 939.96300752 1635.01171875 942.53515625 C1667.0140477 960.91831995 1667.0140477 960.91831995 1677.0625 969.54296875 C1677.89523437 970.25324219 1678.72796875 970.96351563 1679.5859375 971.6953125 C1697.40000818 987.28947591 1713.39783941 1009.09885395 1715.29003906 1033.47412109 C1716.63996903 1061.34295829 1710.06528361 1085.60293573 1691.18115234 1106.63867188 C1676.98626096 1121.92182696 1661.80374568 1131.90827123 1643.62890625 1141.90625 C1637.40358852 1145.33562912 1631.25445975 1148.88311766 1625.125 1152.48046875 C1623.134195 1153.64727263 1621.14330895 1154.81393824 1619.15234375 1155.98046875 C1618.1557373 1156.56441406 1617.15913086 1157.14835937 1616.13232422 1157.75 C1610.8292275 1160.84733913 1605.50855065 1163.91410733 1600.1875 1166.98046875 C1599.10734619 1167.60300537 1598.02719238 1168.22554199 1596.91430664 1168.86694336 C1594.72453666 1170.12873701 1592.53467645 1171.39037409 1590.34472656 1172.65185547 C1584.91590058 1175.77977023 1579.48930719 1178.91155323 1574.0625 1182.04296875 C1571.89584417 1183.29298754 1569.7291775 1184.54298753 1567.5625 1185.79296875 C1566.49 1186.41171875 1565.4175 1187.03046875 1564.3125 1187.66796875 C1561.0625 1189.54296875 1557.8125 1191.41796875 1554.5625 1193.29296875 C1553.49016113 1193.91163818 1552.41782227 1194.53030762 1551.31298828 1195.16772461 C1549.14473736 1196.41861355 1546.97644303 1197.66942727 1544.80810547 1198.92016602 C1539.41532085 1202.0309521 1534.02327907 1205.14301113 1528.6328125 1208.2578125 C1516.82620516 1215.07799512 1505.00223 1221.86620135 1493.15777588 1228.62033081 C1485.09986788 1233.21691098 1477.06832214 1237.85621035 1469.0625 1242.54296875 C1460.46727328 1247.57477565 1451.8393787 1252.54685947 1443.1875 1257.48046875 C1430.86224804 1264.50900382 1418.56527933 1271.58537309 1406.28027344 1278.68408203 C1400.87579355 1281.8062148 1395.46902588 1284.92438079 1390.0625 1288.04296875 C1387.8958225 1289.29294997 1385.72915583 1290.54294996 1383.5625 1291.79296875 C1353.22916667 1309.29296875 1322.89583333 1326.79296875 1292.5625 1344.29296875 C1291.49016113 1344.91163818 1290.41782227 1345.53030762 1289.31298828 1346.16772461 C1287.14473736 1347.41861355 1284.97644303 1348.66942727 1282.80810547 1349.92016602 C1277.41532085 1353.0309521 1272.02327907 1356.14301113 1266.6328125 1359.2578125 C1254.82620516 1366.07799512 1243.00223 1372.86620135 1231.15777588 1379.62033081 C1222.11920572 1384.7763232 1213.11972862 1389.99617548 1204.14013672 1395.25415039 C1195.88326358 1400.08169711 1187.58155969 1404.82845546 1179.27148438 1409.56347656 C1171.17505782 1414.17799727 1163.10448543 1418.83400669 1155.0625 1423.54296875 C1146.4673271 1428.57486665 1137.83937778 1433.54685999 1129.1875 1438.48046875 C1116.86224804 1445.50900382 1104.56527933 1452.58537309 1092.28027344 1459.68408203 C1086.87579355 1462.8062148 1081.46902588 1465.92438079 1076.0625 1469.04296875 C1073.8958225 1470.29294997 1071.72915583 1471.54294996 1069.5625 1472.79296875 C1047.89583333 1485.29296875 1026.22916667 1497.79296875 1004.5625 1510.29296875 C1003.49016113 1510.91163818 1002.41782227 1511.53030762 1001.31298828 1512.16772461 C999.14473736 1513.41861355 996.97644303 1514.66942727 994.80810547 1515.92016602 C989.41532085 1519.0309521 984.02327907 1522.14301113 978.6328125 1525.2578125 C966.82620516 1532.07799512 955.00223 1538.86620135 943.15777588 1545.62033081 C935.09986788 1550.21691098 927.06832214 1554.85621035 919.0625 1559.54296875 C910.46727328 1564.57477565 901.8393787 1569.54685947 893.1875 1574.48046875 C880.86224804 1581.50900382 868.56527933 1588.58537309 856.28027344 1595.68408203 C850.87579355 1598.8062148 845.46902588 1601.92438079 840.0625 1605.04296875 C837.8958225 1606.29294997 835.72915583 1607.54294996 833.5625 1608.79296875 C803.22916667 1626.29296875 772.89583333 1643.79296875 742.5625 1661.29296875 C741.49016113 1661.91163818 740.41782227 1662.53030762 739.31298828 1663.16772461 C737.14473736 1664.41861355 734.97644303 1665.66942727 732.80810547 1666.92016602 C727.41532085 1670.0309521 722.02327907 1673.14301113 716.6328125 1676.2578125 C704.82620516 1683.07799512 693.00223 1689.86620135 681.15777588 1696.62033081 C672.11920572 1701.7763232 663.11972862 1706.99617548 654.14013672 1712.25415039 C645.88326358 1717.08169711 637.58155969 1721.82845546 629.27148438 1726.56347656 C621.17505782 1731.17799727 613.10448543 1735.83400669 605.0625 1740.54296875 C596.4673271 1745.57486665 587.83937778 1750.54685999 579.1875 1755.48046875 C566.86224804 1762.50900382 554.56527933 1769.58537309 542.28027344 1776.68408203 C536.87579355 1779.8062148 531.46902588 1782.92438079 526.0625 1786.04296875 C523.8958225 1787.29294997 521.72915583 1788.54294996 519.5625 1789.79296875 C497.89583333 1802.29296875 476.22916667 1814.79296875 454.5625 1827.29296875 C453.49016113 1827.91163818 452.41782227 1828.53030762 451.31298828 1829.16772461 C449.14473736 1830.41861355 446.97644303 1831.66942727 444.80810547 1832.92016602 C439.41532085 1836.0309521 434.02327907 1839.14301113 428.6328125 1842.2578125 C416.82620516 1849.07799512 405.00223 1855.86620135 393.15777588 1862.62033081 C385.09986788 1867.21691098 377.06832214 1871.85621035 369.0625 1876.54296875 C360.46727328 1881.57477565 351.8393787 1886.54685947 343.1875 1891.48046875 C330.86224804 1898.50900382 318.56527933 1905.58537309 306.28027344 1912.68408203 C300.87579355 1915.8062148 295.46902588 1918.92438079 290.0625 1922.04296875 C287.8958225 1923.29294997 285.72915583 1924.54294996 283.5625 1925.79296875 C244.5625 1948.29296875 205.5625 1970.79296875 166.5625 1993.29296875 C165.49016113 1993.91163818 164.41782227 1994.53030762 163.31298828 1995.16772461 C161.14473736 1996.41861355 158.97644303 1997.66942727 156.80810547 1998.92016602 C151.41532085 2002.0309521 146.02327907 2005.14301113 140.6328125 2008.2578125 C128.82620516 2015.07799512 117.00223 2021.86620135 105.15777588 2028.62033081 C97.09986788 2033.21691098 89.06832214 2037.85621035 81.0625 2042.54296875 C71.29256916 2048.26246947 61.47490615 2053.89558283 51.64038086 2059.50292969 C43.62143914 2064.07585102 35.61840507 2068.6754942 27.625 2073.29296875 C26.55765625 2073.90825439 25.4903125 2074.52354004 24.390625 2075.1574707 C19.31640816 2078.08271302 14.24782867 2081.01675136 9.19140625 2083.97265625 C-8.24841454 2094.12839351 -23.62161618 2101.15168742 -44.1875 2100.91796875 C-45.46294678 2100.90926758 -46.73839355 2100.90056641 -48.05249023 2100.89160156 C-57.36341327 2100.74694284 -65.94623946 2099.9970792 -74.9375 2097.54296875 C-75.94683594 2097.29933594 -76.95617187 2097.05570313 -77.99609375 2096.8046875 C-100.31972937 2090.54932613 -120.73500189 2071.48001671 -131.94677734 2051.76855469 C-140.69776425 2035.5864884 -143.09642108 2018.355272 -143.0651505 2000.16396683 C-143.06639447 1998.79873288 -143.06807594 1997.43349926 -143.07015286 1996.06826631 C-143.07460072 1992.30847687 -143.07282534 1988.54871207 -143.07005108 1984.78892197 C-143.0681284 1980.68638432 -143.07201096 1976.58385144 -143.07514787 1972.48131511 C-143.07986333 1965.26061285 -143.08084563 1958.03991744 -143.07941952 1950.81921389 C-143.07730025 1940.0093724 -143.0809091 1929.19953802 -143.0856343 1918.38969763 C-143.09351257 1899.96766814 -143.09659659 1881.54564059 -143.09708023 1863.12360954 C-143.09758233 1844.44870153 -143.10022625 1825.77379569 -143.10548782 1807.0988884 C-143.10581796 1805.92033246 -143.10614809 1804.74177653 -143.10648823 1803.52750678 C-143.1078382 1798.72758525 -143.10920086 1793.92766373 -143.11058033 1789.12774222 C-143.12572796 1736.32719098 -143.13252317 1683.52664 -143.1370023 1630.72608698 C-143.13705899 1630.05821605 -143.13711568 1629.39034512 -143.13717409 1628.70223568 C-143.13746061 1625.32398759 -143.13774564 1621.94573949 -143.1380282 1618.5674914 C-143.14040346 1590.26226799 -143.14411316 1561.95704482 -143.1480653 1533.65182159 C-143.14995789 1520.09595737 -143.15178639 1506.54009314 -143.1535995 1492.98422891 C-143.15368969 1492.31003172 -143.15377988 1491.63583453 -143.1538728 1490.94120713 C-143.15820905 1458.49283205 -143.16213737 1426.04445692 -143.16559982 1393.59608173 C-143.1656737 1392.90390005 -143.16574757 1392.21171837 -143.16582368 1391.49856149 C-143.17051866 1347.38605522 -143.17334167 1303.27354903 -143.1749866 1259.16104254 C-143.17512218 1255.54437516 -143.17526121 1251.92770778 -143.17540014 1248.3110404 C-143.17562262 1242.5126539 -143.17584399 1236.7142674 -143.17606402 1230.9158809 C-143.17609129 1230.19736282 -143.17611856 1229.47884474 -143.17614666 1228.73855338 C-143.17620177 1227.28637125 -143.17625688 1225.83418911 -143.17631199 1224.38200697 C-143.17669861 1214.19538045 -143.17708655 1204.00875393 -143.17748112 1193.82212741 C-143.17762223 1190.17714449 -143.1777623 1186.53216156 -143.17790002 1182.88717863 C-143.18050409 1114.04937755 -143.18583318 1045.21157873 -143.20178223 976.3737793 C-143.20195002 975.64916833 -143.20211781 974.92455736 -143.20229069 974.17798849 C-143.20754138 951.53801115 -143.21311573 928.89803389 -143.21875 906.25805664 C-143.22453103 883.02769823 -143.2302616 859.79733981 -143.23570633 836.56698132 C-143.23587414 835.85169562 -143.23604194 835.13640993 -143.23621484 834.39944891 C-143.24670896 789.5978262 -143.25356989 744.79620411 -143.25657272 699.99458027 C-143.25661953 699.30255337 -143.25666635 698.61052646 -143.25671458 697.89752905 C-143.2587653 667.50428485 -143.26000933 637.11104066 -143.26036063 606.71779638 C-143.2605039 594.49020709 -143.26074256 582.26261779 -143.26102469 570.0350285 C-143.26107022 568.00764791 -143.26111187 565.98026733 -143.2611528 563.95288674 C-143.26179877 532.94818811 -143.26475402 501.94349205 -143.27461338 470.93879485 C-143.27482575 470.27035615 -143.27503812 469.60191745 -143.27525693 468.91322304 C-143.27868563 458.16082299 -143.28229863 447.408423 -143.28593333 436.65602301 C-143.3008256 392.57936788 -143.30639521 348.50272301 -143.29819075 304.42606575 C-143.29707536 298.42819744 -143.2960647 292.43032912 -143.29511642 286.43246078 C-143.29492646 285.25670865 -143.29473649 284.08095651 -143.29454076 282.86957552 C-143.29180663 264.24921964 -143.29915066 245.62888191 -143.31068979 227.00852998 C-143.3218257 208.70079484 -143.32226672 190.39308537 -143.31131961 172.08534983 C-143.30522202 161.35132264 -143.30732104 150.61737293 -143.32157158 139.88335303 C-143.33021921 132.75112587 -143.32794984 125.61895561 -143.31687287 118.48673195 C-143.31090053 114.44581724 -143.30948507 110.40505421 -143.32155773 106.36414967 C-143.40959639 74.75452084 -141.0629197 47.61830936 -119.9375 22.54296875 C-118.95523437 21.34220703 -118.95523437 21.34220703 -117.953125 20.1171875 C-88.84724639 -14.03441824 -38.37902972 -24.58656592 0 0 Z " fill="#FEFEFE" transform="translate(544.9375,236.45703125)"/>
<path d="M0 0 C0.66 0.33 1.32 0.66 2 1 C-3.28 6.28 -8.56 11.56 -14 17 C-14.66 16.67 -15.32 16.34 -16 16 C-14.27538679 14.07906479 -12.54557391 12.163278 -10.8125 10.25 C-10.32974609 9.71117187 -9.84699219 9.17234375 -9.34960938 8.6171875 C-6.43837795 5.41287909 -3.47293499 2.6158121 0 0 Z " fill="#A4A4A4" transform="translate(440,244)"/>
</svg>
