<svg xmlns="http://www.w3.org/2000/svg" width="1280" height="1280" viewBox="0 0 64 64" role="img">
  <path fill="#fff" stroke="#fff" d="M12.332 19.544A22.958 22.958 0 0 1 25.189 9.76c12.191-3.67 25.05 3.237 28.72 15.428 3.672 12.191-3.236 25.05-15.427 28.72-7.24 2.181-14.717.632-20.37-3.548a22.94 22.94 0 0 1-8.35-11.879 2.5 2.5 0 1 0-4.788 1.442A27.94 27.94 0 0 0 15.139 54.38c6.867 5.078 15.97 6.97 24.785 4.316 14.835-4.467 23.24-20.114 18.773-34.95C54.23 8.912 38.583.507 23.747 4.974a27.935 27.935 0 0 0-14.534 10.27V8.595a2.5 2.5 0 1 0-5 0v15.949h15.949a2.5 2.5 0 0 0 0-5h-7.83Z"/>
  <path fill="#fff" stroke="#fff" d="M26.536 40V29.904l-2.672 2.624v-2.912l2.752-2.736h2.56V40h-2.64ZM36.279 26.64c.704 0 1.355.144 1.952.432.597.288 1.11.715 1.536 1.28.437.555.779 1.243 1.024 2.064.245.81.368 1.744.368 2.8v.416c0 1.045-.123 1.979-.368 2.8-.245.81-.587 1.499-1.024 2.064a4.348 4.348 0 0 1-1.536 1.296 4.303 4.303 0 0 1-1.952.448 4.399 4.399 0 0 1-1.936-.432 4.612 4.612 0 0 1-1.536-1.28c-.437-.565-.779-1.259-1.024-2.08-.245-.821-.368-1.76-.368-2.816V33.2c0-1.045.123-1.973.368-2.784.245-.821.587-1.51 1.024-2.064.437-.565.95-.992 1.536-1.28a4.399 4.399 0 0 1 1.936-.432Zm0 2.128c-.704 0-1.221.325-1.552.976-.32.64-.48 1.632-.48 2.976v1.456c0 1.365.16 2.368.48 3.008.33.63.848.944 1.552.944.704 0 1.221-.315 1.552-.944.341-.64.512-1.643.512-3.008V32.72c0-1.344-.17-2.336-.512-2.976-.341-.65-.859-.976-1.552-.976Z"/>
</svg>